<?xml version="1.0" encoding="UTF-8" standalone="no"?>
<!-- Svg Vector Icons : http://www.onlinewebfonts.com/icon -->

<svg
   xmlns:dc="http://purl.org/dc/elements/1.1/"
   xmlns:cc="http://creativecommons.org/ns#"
   xmlns:rdf="http://www.w3.org/1999/02/22-rdf-syntax-ns#"
   xmlns:svg="http://www.w3.org/2000/svg"
   xmlns="http://www.w3.org/2000/svg"
   xmlns:sodipodi="http://sodipodi.sourceforge.net/DTD/sodipodi-0.dtd"
   xmlns:inkscape="http://www.inkscape.org/namespaces/inkscape"
   version="1.1"
   x="0px"
   y="0px"
   viewBox="0 0 565.91266 2014.2609"
   enable-background="new 0 0 1000 1000"
   xml:space="preserve"
   id="svg14"
   sodipodi:docname="link2.svg"
   inkscape:version="0.92.3 (2405546, 2018-03-11)"
   width="565.91266"
   height="2014.2609"><defs
   id="defs18" /><sodipodi:namedview
   pagecolor="#ffffff"
   bordercolor="#666666"
   borderopacity="1"
   objecttolerance="10"
   gridtolerance="10"
   guidetolerance="10"
   inkscape:pageopacity="0"
   inkscape:pageshadow="2"
   inkscape:window-width="1920"
   inkscape:window-height="1053"
   id="namedview16"
   showgrid="false"
   inkscape:zoom="0.118"
   inkscape:cx="-847.90132"
   inkscape:cy="1127.9154"
   inkscape:window-x="-9"
   inkscape:window-y="-9"
   inkscape:window-maximized="1"
   inkscape:current-layer="svg14"
   fit-margin-top="50"
   fit-margin-left="50"
   fit-margin-right="50"
   fit-margin-bottom="50" />
<metadata
   id="metadata2"> Svg Vector Icons : http://www.onlinewebfonts.com/icon <rdf:RDF><cc:Work
     rdf:about=""><dc:format>image/svg+xml</dc:format><dc:type
       rdf:resource="http://purl.org/dc/dcmitype/StillImage" /><dc:title></dc:title></cc:Work></rdf:RDF></metadata>

<g
   id="g852"
   transform="rotate(-45,2047.4542,3425.3747)"
   style="fill:#000000"><path
     inkscape:connector-curvature="0"
     id="path843"
     d="m 2329.9604,623.94163 23.5,23.5 c 19.5,19.5 51.1,19.5 70.6,0 l 266.9,-266.9 c 19.5,-19.5 19.5,-51.1 0,-70.6 l -23.5,-23.4 c -19.5,-19.5 -51.1,-19.5 -70.6,0 l -266.9,266.9 c -19.5,19.5 -19.5,51.1 0,70.5 z"
     style="fill:#000000" /><path
     inkscape:connector-curvature="0"
     id="path845"
     d="m 2561.9604,603.74163 -220.2,220.2 c -26,26 -68.1,26 -94.1,0 l -94.1,-94.1 c -26,-26 -26,-68.1 0,-94.1 l 121.7,-121.7 98.8,-98.9 -70.5,-70.7 -244.1,244.2 c -52,52 -52,136.2 0,188.2 l 141.1,141.2 c 52,52 136.2,52 188.2,0 l 243.7,-243.7 z"
     style="fill:#000000" /><path
     inkscape:connector-curvature="0"
     id="path847"
     d="m 2961.4604,157.14163 -141.1,-141.099997 c -52,-52 -136.2,-52 -188.2,0 l -249.6,249.499997 70.5,70.7 226.1,-226.1 c 26,-25.999997 68.1,-25.999997 94.1,0 l 94.1,94.1 c 26,26 26,68.1 0,94.1 l -226.4,226.4 70.5,70.7 250,-250 c 52,-52 52,-136.3 0,-188.3 z"
     style="fill:#000000" /><path
     style="fill:#000000"
     d="m 3021.8412,-373.73899 -70.6002,70.60019 82.2426,82.2426 c 26,25.99997 26,68.10041 0,94.1004 L 2899.0076,7.6804397 2969.5084,78.3801 3127.5841,-79.69576 c 52,-52.00005 51.9999,-136.30043 -1e-4,-188.30043 z"
     id="path847-0"
     inkscape:connector-curvature="0"
     sodipodi:nodetypes="ccssccssc" /><path
     sodipodi:nodetypes="ccssccssc"
     inkscape:connector-curvature="0"
     id="path872"
     d="m 1668.2545,979.84785 70.6001,-70.60032 82.2426,82.2428 c 26,26.00007 68.1005,26.00007 94.1004,0 l 134.4763,-134.47621 70.6996,70.50081 -158.0758,158.07597 c -52.0001,52 -136.3004,51.9999 -188.3004,-10e-5 z"
     style="fill:#000000" /></g></svg>